# xmcd
#
# Track frame offsets:
#	182
#	8557
#	20760
#	33562
#	44257
#	54412
#	65282
#	77777
#	88135
#	100677
#	110730
#	120612
#	130795
#	143100
#	151817
#	161787
#	172047
#	182630
#	193365
#	203395
#	215057
#	225507
#	234977
#	246220
#	257287
#	267707
#
# Disc length: 3708
#
# Revision: 2
# Processed by: cddbd v1.5.1PL0 Copyright (c) Steve Scherf et al.
# Submitted via: EasyCDDAExtractor 5.0.4.1
# Normalized: r1:DSETVAR1
#
DISCID=670e7a1a
DTITLE=Various Artist - Under the Covers
DYEAR=1900
DGENRE=Doo Wop
TTITLE0=Essex - Why Do Fools Fall In Love
TTITLE1=Wayne Anthony - A Thousand Miles Away
TTITLE2=Frankie Lymon - Silhouettes
TTITLE3=Little Anthony - I Cover the Waterfront
TTITLE4=Cleftones - Earth Angel
TTITLE5=Essex - Out of Sight Out of Mind
TTITLE6=Teenagers - Tonight's the Night
TTITLE7=Turbans - Diamonds and Pearls
TTITLE8=Little Anthony - Please Say You Want Me
TTITLE9=Uniques - I'm Confessin'
TTITLE10=Essex - Gee Whiz
TTITLE11=Cleftones - Glory of Love
TTITLE12=Flamingos - Beside You
TTITLE13=Harmony Grits - Gee
TTITLE14=Little Anthony - Over the Rainbow
TTITLE15=Essex - We Belong Together
TTITLE16=Cleftones - A Hundred Pounds of Clay
TTITLE17=Richard Barrett and Chantels - Come Softly to Me
TTITLE18=Joey Page - Blue Velvet
TTITLE19=Little Anthony - When You Wish Upon a Star
TTITLE20=Cleftones - Red Sails in the Sunset
TTITLE21=Frankie Lymon - Buzz Buzz Buzz
TTITLE22=Essex - Creation of Love
TTITLE23=Angels - Glory of Love
TTITLE24=Patricia Span and Cleftones - Heavenly Father
TTITLE25=Devotions - For Sentimental Reasons
EXTD=
EXTT0=
EXTT1=
EXTT2=
EXTT3=
EXTT4=
EXTT5=
EXTT6=
EXTT7=
EXTT8=
EXTT9=
EXTT10=
EXTT11=
EXTT12=
EXTT13=
EXTT14=
EXTT15=
EXTT16=
EXTT17=
EXTT18=
EXTT19=
EXTT20=
EXTT21=
EXTT22=
EXTT23=
EXTT24=
EXTT25=
PLAYORDER=
